<svg xmlns="http://www.w3.org/2000/svg" version="1.1" xmlns:xlink="http://www.w3.org/1999/xlink" width="1000" height="1000"><style>
    #light-icon {
      display: inline;
    }
    #dark-icon {
      display: none;
    }

    @media (prefers-color-scheme: dark) {
      #light-icon {
        display: none;
      }
      #dark-icon {
        display: inline;
      }
    }
  </style><g id="light-icon"><svg xmlns="http://www.w3.org/2000/svg" version="1.1" xmlns:xlink="http://www.w3.org/1999/xlink" width="1000" height="1000"><g><g transform="matrix(17.54385964912281,0,0,17.54385964912281,70.17543859649118,-5.684341886080802e-14)"><svg xmlns="http://www.w3.org/2000/svg" version="1.1" xmlns:xlink="http://www.w3.org/1999/xlink" width="49" height="57"><svg width="49" height="57" viewBox="0 0 49 57" fill="none" xmlns="http://www.w3.org/2000/svg">
<path d="M30.3218 15.1846C34.1223 15.1469 37.9649 15.2791 40.8912 15.5537C42.3508 15.6907 43.6003 15.8654 44.5064 16.0762C44.956 16.1808 45.3466 16.3003 45.6412 16.4395C45.7879 16.5089 45.932 16.5935 46.0503 16.6973C46.1669 16.7998 46.2926 16.9518 46.3374 17.1592C46.4008 17.4538 46.3867 17.8184 46.3492 18.166C46.3103 18.5256 46.24 18.9207 46.1617 19.2988C46.0831 19.6779 45.9943 20.0511 45.9185 20.3672C45.8409 20.6905 45.7798 20.9426 45.7496 21.0996C45.537 22.2029 45.2604 23.184 45.4312 26.2168C45.6037 29.278 46.2315 34.412 47.8482 43.7881C48.2099 45.5129 48.4304 48.183 47.8999 50.5977C47.3684 53.0161 46.0473 55.2952 43.2456 55.96L43.1871 55.9736H43.1275C38.1226 55.9436 33.9062 56.069 30.3511 56.1387C26.8063 56.2081 23.8979 56.2227 21.5464 55.9629C19.1953 55.703 17.3335 55.1634 15.9205 54.0762C14.568 53.0352 13.6837 51.5356 13.1304 49.459C11.1869 49.1868 8.52438 48.3046 6.19584 47.125C4.95765 46.4976 3.79276 45.7758 2.86967 45.001C1.95664 44.2344 1.22844 43.3734 0.944865 42.4561C0.326117 40.4528 -0.364814 36.7051 0.223185 33.0352C0.814748 29.3448 2.71717 25.6743 7.31791 24.0146C9.41941 23.2568 11.0636 22.9639 12.3433 22.8789C13.6214 22.7942 14.5297 22.9185 15.1128 22.9756C15.4198 23.0056 15.5775 23.0087 15.6685 22.9912C15.6732 22.9904 15.6787 22.99 15.6822 22.9893C15.7085 22.9303 15.7426 22.7808 15.7447 22.4404C15.7466 22.1124 15.7206 21.6694 15.6744 21.0664C15.5856 20.6043 15.2414 18.7064 15.1529 18.2656C15.068 17.8415 15.2543 17.4842 15.521 17.2275C15.7758 16.9829 16.1398 16.7884 16.5474 16.627C17.3714 16.3009 18.5548 16.0424 19.9468 15.8389C22.7437 15.43 26.5237 15.2223 30.3218 15.1846ZM32.5972 43.1201C28.6778 42.995 24.5953 42.9761 21.2447 43.1553C19.5693 43.2449 18.0851 43.3837 16.9009 43.5811C15.8173 43.7618 15.0426 43.9844 14.5953 44.2256C14.3957 45.5687 14.1971 47.2472 14.0777 49.0977L14.0699 49.0967C14.5836 51.087 15.3815 52.3985 16.5308 53.2832C17.7319 54.2073 19.3795 54.7171 21.6558 54.9688C23.9327 55.2203 26.7777 55.2083 30.3316 55.1387C33.8607 55.0695 38.0754 54.944 43.0689 54.9727C45.3044 54.4175 46.4369 52.5965 46.9234 50.3828C47.4122 48.1573 47.2146 45.6496 46.8746 44.0146L46.7369 43.4453L46.6734 43.4873C46.6393 43.5155 46.5965 43.56 46.563 43.623C46.5234 43.6983 46.5004 43.7945 46.5122 43.8975C46.5236 43.9951 46.5627 44.0689 46.5953 44.1143C46.6265 44.1576 46.6589 44.1857 46.6763 44.1992C46.6931 44.2122 46.7075 44.2204 46.7134 44.2236C46.7222 44.2284 46.7192 44.2267 46.6968 44.2188C46.5955 44.1831 46.3786 44.1327 46.0308 44.0752C45.3494 43.9627 44.2842 43.8389 42.9429 43.7178C40.2636 43.4758 36.5154 43.2452 32.5972 43.1201ZM15.0152 23.9707C14.4112 23.9116 13.5901 23.7987 12.4097 23.877C11.2297 23.9553 9.67738 24.2268 7.65776 24.9551C3.50112 26.4545 1.76393 29.7409 1.21049 33.1934C0.654094 36.6661 1.31065 40.252 1.89994 42.1602C2.09969 42.8066 2.65567 43.5162 3.51225 44.2354C4.35907 44.9462 5.45359 45.6282 6.64799 46.2334C8.84936 47.3486 11.3293 48.1694 13.1216 48.4453C13.3441 45.4649 13.7566 42.9812 14.024 41.6836C10.859 41.6513 8.83432 40.8648 7.7808 39.5713C6.64578 38.1766 6.77005 36.3684 7.5142 34.7637C8.26069 33.1547 9.66928 31.6407 11.3169 30.6924C12.7825 29.8494 14.4951 29.4255 16.1294 29.8438C16.2567 27.6378 16.2171 26.0402 16.1109 24.9346C16.0732 24.5422 16.0265 24.2133 15.9781 23.9434C15.9389 23.9551 15.8984 23.9651 15.8599 23.9727C15.6027 24.0225 15.2995 23.9985 15.0152 23.9707ZM44.6714 21.4053C40.2421 20.611 29.7904 19.6265 16.7017 21.4365C16.7286 21.8352 16.7463 22.1708 16.7447 22.4473C16.7438 22.5787 16.7374 22.7075 16.7261 22.8301C16.7784 22.9713 16.8262 23.1345 16.8697 23.3145C16.9611 23.6929 17.0452 24.1964 17.107 24.8389C17.2305 26.1251 17.2672 27.9969 17.0855 30.6025L17.0406 30.5986C17.0367 30.6377 17.0344 30.6784 17.0298 30.7119C17.0193 30.7887 17.0046 30.8887 16.9859 31.0049C16.9482 31.2386 16.8932 31.5547 16.8267 31.9307C16.6934 32.6845 16.5097 33.6917 16.3052 34.791C15.896 36.9906 15.404 39.5721 15.0767 41.2773L15.064 41.3467L15.1177 41.3604C15.0342 41.7112 14.9153 42.2962 14.7837 43.0605C15.328 42.8704 15.9948 42.7183 16.7359 42.5947C17.9718 42.3887 19.4979 42.2469 21.1919 42.1562C24.5825 41.9749 28.6961 41.9956 32.6294 42.1211C36.5638 42.2467 40.3313 42.4777 43.0328 42.7217C44.3804 42.8434 45.4753 42.9692 46.1939 43.0879C46.3948 43.1211 46.5785 43.1563 46.7339 43.1924C45.2127 34.291 44.6032 29.3087 44.4322 26.2734C44.2803 23.5764 44.4752 22.402 44.6714 21.4053ZM15.9996 30.8447C14.6561 30.459 13.1716 30.7792 11.815 31.5596C10.3348 32.4116 9.07459 33.7747 8.42045 35.1846C7.7649 36.5985 7.75508 37.9561 8.55619 38.9404C9.34511 39.909 11.042 40.6742 14.1734 40.6826C14.4972 38.9921 14.9444 36.6365 15.3218 34.6074C15.5261 33.5091 15.7098 32.5062 15.8423 31.7568C15.9085 31.3824 15.9621 31.0719 15.9986 30.8457L15.9996 30.8447ZM30.3316 16.1846C26.5534 16.2221 22.8242 16.4287 20.0913 16.8281C18.7197 17.0287 17.6292 17.2743 16.9156 17.5566C16.556 17.6991 16.3321 17.8363 16.2144 17.9492C16.1604 18.0012 16.141 18.0369 16.1353 18.0508C16.1324 18.0582 16.1321 18.0617 16.1333 18.0684C16.1997 18.399 16.4397 19.7081 16.5757 20.4443C29.794 18.6177 40.3638 19.6132 44.8785 20.4268C44.9005 20.3344 44.9218 20.2352 44.9458 20.1348C45.0216 19.8192 45.107 19.4585 45.1822 19.0957C45.2576 18.7319 45.3211 18.3724 45.355 18.0586C45.3851 17.7797 45.3863 17.5694 45.3687 17.4326C45.3395 17.4113 45.29 17.379 45.2134 17.3428C45.0132 17.2482 44.7023 17.1481 44.2798 17.0498C43.4387 16.8542 42.241 16.6853 40.7974 16.5498C37.9143 16.2793 34.1076 16.1471 30.3316 16.1846ZM37.6441 3.58984L37.6431 3.59082C37.6424 3.59128 37.6407 3.59271 37.6392 3.59375C37.6356 3.59607 37.6289 3.5998 37.6216 3.60449C37.6066 3.61434 37.5835 3.62999 37.5542 3.64941C37.4949 3.68887 37.4069 3.7479 37.2964 3.82324C37.0746 3.97453 36.759 4.19422 36.3882 4.46387C35.6445 5.00482 34.6818 5.7455 33.7974 6.54883C33.497 6.82174 33.3571 7.00916 33.3003 7.12402C33.2846 7.15601 33.2788 7.17809 33.2759 7.19043C33.2805 7.19611 33.2873 7.20529 33.2984 7.21582C33.3257 7.24166 33.3687 7.27482 33.4312 7.31348C33.563 7.39486 33.7273 7.47042 33.938 7.57031C34.1343 7.66332 34.3681 7.77635 34.5767 7.91699C34.7858 8.05805 35.0072 8.25186 35.148 8.52441C35.4589 9.12751 35.2495 9.81884 34.6744 10.5811C34.4148 10.9249 34.2214 11.1883 34.0806 11.4131C33.941 11.636 33.8709 11.7962 33.8404 11.9297C33.787 12.1643 33.8277 12.4349 34.1597 13.0508L33.2789 13.5254C32.9235 12.8662 32.7262 12.3152 32.8648 11.707C32.9305 11.4195 33.0645 11.1508 33.233 10.8818C33.4005 10.6143 33.6207 10.3174 33.8765 9.97852C34.3838 9.30609 34.2967 9.05502 34.2593 8.98242C34.2257 8.91781 34.1551 8.83856 34.0181 8.74609C33.8799 8.6529 33.7095 8.56853 33.5093 8.47363C33.3238 8.38572 33.0967 8.28194 32.9058 8.16406C32.7193 8.04877 32.4886 7.87466 32.3628 7.60645C32.2214 7.30405 32.2555 6.98247 32.4029 6.68262C32.5411 6.40207 32.7886 6.11463 33.1255 5.80859C34.0466 4.972 35.0399 4.20769 35.7994 3.65527C36.1796 3.37868 36.5041 3.15314 36.733 2.99707C36.8469 2.91934 36.9381 2.85791 37.0005 2.81641C37.0314 2.79586 37.0564 2.77935 37.0728 2.76855C37.0807 2.76334 37.0881 2.75863 37.0923 2.75586C37.0941 2.75478 37.0962 2.75356 37.0972 2.75293L37.0982 2.75195L37.6441 3.58984ZM33.6929 0.412109C33.952 0.78815 33.9742 0.821374 33.9761 0.824219L33.9751 0.825195C33.9742 0.825841 33.9721 0.826908 33.9703 0.828125C33.9659 0.83117 33.9586 0.836581 33.9497 0.842773C33.9316 0.855452 33.9033 0.874369 33.8677 0.899414C33.7961 0.949907 33.6904 1.02572 33.5572 1.12207C33.2902 1.31522 32.9104 1.59538 32.4644 1.93945C31.5703 2.6292 30.4125 3.57427 29.3472 4.60059C28.983 4.95154 28.8012 5.20296 28.7222 5.37305C28.6528 5.52292 28.6779 5.57329 28.6831 5.58496C28.7004 5.6238 28.7566 5.6989 28.9224 5.80762C29.0861 5.91484 29.289 6.0137 29.5396 6.13965C29.7757 6.25837 30.0508 6.39994 30.2945 6.57422C30.5396 6.74966 30.7865 6.98142 30.941 7.29883C31.2725 7.98103 31.0683 8.78887 30.3843 9.75C29.7452 10.648 29.4481 11.1087 29.3589 11.5225C29.2815 11.8827 29.3543 12.2724 29.7554 13.0615L28.8638 13.5146C28.4397 12.6803 28.2273 12.0251 28.3804 11.3125C28.5222 10.6537 28.9713 10.0109 29.5699 9.16992C30.1858 8.30432 30.1279 7.91416 30.0415 7.73633C29.987 7.62428 29.8834 7.50904 29.7124 7.38672C29.5398 7.26336 29.3299 7.15362 29.0904 7.0332C28.8653 6.92004 28.5983 6.7901 28.3746 6.64355C28.1531 6.49839 27.9021 6.2924 27.7681 5.98926C27.6219 5.65789 27.6527 5.30232 27.815 4.95215C27.9696 4.61891 28.2526 4.26642 28.6538 3.87988C29.7553 2.81883 30.9442 1.84941 31.854 1.14746C32.3096 0.796057 32.6973 0.509701 32.9712 0.311523C33.108 0.212608 33.2168 0.134701 33.2915 0.0820312C33.3286 0.0558996 33.3578 0.0351729 33.3775 0.0214844L33.4068 0.00195312L33.4087 0C33.4106 0.00258494 33.4326 0.0343906 33.6929 0.412109Z" fill="black"></path>
</svg></svg></g></g></svg></g><g id="dark-icon"><svg xmlns="http://www.w3.org/2000/svg" version="1.1" xmlns:xlink="http://www.w3.org/1999/xlink" width="1000" height="1000"><g><g transform="matrix(17.54385964912281,0,0,17.54385964912281,70.17543859649118,-5.684341886080802e-14)"><svg xmlns="http://www.w3.org/2000/svg" version="1.1" xmlns:xlink="http://www.w3.org/1999/xlink" width="49" height="57"><svg width="49" height="57" viewBox="0 0 49 57" fill="none" xmlns="http://www.w3.org/2000/svg">
<path d="M30.3218 15.1846C34.1223 15.1469 37.9649 15.2791 40.8912 15.5537C42.3508 15.6907 43.6003 15.8654 44.5064 16.0762C44.956 16.1808 45.3466 16.3003 45.6412 16.4395C45.7879 16.5089 45.932 16.5935 46.0503 16.6973C46.1669 16.7998 46.2926 16.9518 46.3374 17.1592C46.4008 17.4538 46.3867 17.8184 46.3492 18.166C46.3103 18.5256 46.24 18.9207 46.1617 19.2988C46.0831 19.6779 45.9943 20.0511 45.9185 20.3672C45.8409 20.6905 45.7798 20.9426 45.7496 21.0996C45.537 22.2029 45.2604 23.184 45.4312 26.2168C45.6037 29.278 46.2315 34.412 47.8482 43.7881C48.2099 45.5129 48.4304 48.183 47.8999 50.5977C47.3684 53.0161 46.0473 55.2952 43.2456 55.96L43.1871 55.9736H43.1275C38.1226 55.9436 33.9062 56.069 30.3511 56.1387C26.8063 56.2081 23.8979 56.2227 21.5464 55.9629C19.1953 55.703 17.3335 55.1634 15.9205 54.0762C14.568 53.0352 13.6837 51.5356 13.1304 49.459C11.1869 49.1868 8.52438 48.3046 6.19584 47.125C4.95765 46.4976 3.79276 45.7758 2.86967 45.001C1.95664 44.2344 1.22844 43.3734 0.944865 42.4561C0.326117 40.4528 -0.364814 36.7051 0.223185 33.0352C0.814748 29.3448 2.71717 25.6743 7.31791 24.0146C9.41941 23.2568 11.0636 22.9639 12.3433 22.8789C13.6214 22.7942 14.5297 22.9185 15.1128 22.9756C15.4198 23.0056 15.5775 23.0087 15.6685 22.9912C15.6732 22.9904 15.6787 22.99 15.6822 22.9893C15.7085 22.9303 15.7426 22.7808 15.7447 22.4404C15.7466 22.1124 15.7206 21.6694 15.6744 21.0664C15.5856 20.6043 15.2414 18.7064 15.1529 18.2656C15.068 17.8415 15.2543 17.4842 15.521 17.2275C15.7758 16.9829 16.1398 16.7884 16.5474 16.627C17.3714 16.3009 18.5548 16.0424 19.9468 15.8389C22.7437 15.43 26.5237 15.2223 30.3218 15.1846ZM32.5972 43.1201C28.6778 42.995 24.5953 42.9761 21.2447 43.1553C19.5693 43.2449 18.0851 43.3837 16.9009 43.5811C15.8173 43.7618 15.0426 43.9844 14.5953 44.2256C14.3957 45.5687 14.1971 47.2472 14.0777 49.0977L14.0699 49.0967C14.5836 51.087 15.3815 52.3985 16.5308 53.2832C17.7319 54.2073 19.3795 54.7171 21.6558 54.9688C23.9327 55.2203 26.7777 55.2083 30.3316 55.1387C33.8607 55.0695 38.0754 54.944 43.0689 54.9727C45.3044 54.4175 46.4369 52.5965 46.9234 50.3828C47.4122 48.1573 47.2146 45.6496 46.8746 44.0146L46.7369 43.4453L46.6734 43.4873C46.6393 43.5155 46.5965 43.56 46.563 43.623C46.5234 43.6983 46.5004 43.7945 46.5122 43.8975C46.5236 43.9951 46.5627 44.0689 46.5953 44.1143C46.6265 44.1576 46.6589 44.1857 46.6763 44.1992C46.6931 44.2122 46.7075 44.2204 46.7134 44.2236C46.7222 44.2284 46.7192 44.2267 46.6968 44.2188C46.5955 44.1831 46.3786 44.1327 46.0308 44.0752C45.3494 43.9627 44.2842 43.8389 42.9429 43.7178C40.2636 43.4758 36.5154 43.2452 32.5972 43.1201ZM15.0152 23.9707C14.4112 23.9116 13.5901 23.7987 12.4097 23.877C11.2297 23.9553 9.67738 24.2268 7.65776 24.9551C3.50112 26.4545 1.76393 29.7409 1.21049 33.1934C0.654094 36.6661 1.31065 40.252 1.89994 42.1602C2.09969 42.8066 2.65567 43.5162 3.51225 44.2354C4.35907 44.9462 5.45359 45.6282 6.64799 46.2334C8.84936 47.3486 11.3293 48.1694 13.1216 48.4453C13.3441 45.4649 13.7566 42.9812 14.024 41.6836C10.859 41.6513 8.83432 40.8648 7.7808 39.5713C6.64578 38.1766 6.77005 36.3684 7.5142 34.7637C8.26069 33.1547 9.66928 31.6407 11.3169 30.6924C12.7825 29.8494 14.4951 29.4255 16.1294 29.8438C16.2567 27.6378 16.2171 26.0402 16.1109 24.9346C16.0732 24.5422 16.0265 24.2133 15.9781 23.9434C15.9389 23.9551 15.8984 23.9651 15.8599 23.9727C15.6027 24.0225 15.2995 23.9985 15.0152 23.9707ZM44.6714 21.4053C40.2421 20.611 29.7904 19.6265 16.7017 21.4365C16.7286 21.8352 16.7463 22.1708 16.7447 22.4473C16.7438 22.5787 16.7374 22.7075 16.7261 22.8301C16.7784 22.9713 16.8262 23.1345 16.8697 23.3145C16.9611 23.6929 17.0452 24.1964 17.107 24.8389C17.2305 26.1251 17.2672 27.9969 17.0855 30.6025L17.0406 30.5986C17.0367 30.6377 17.0344 30.6784 17.0298 30.7119C17.0193 30.7887 17.0046 30.8887 16.9859 31.0049C16.9482 31.2386 16.8932 31.5547 16.8267 31.9307C16.6934 32.6845 16.5097 33.6917 16.3052 34.791C15.896 36.9906 15.404 39.5721 15.0767 41.2773L15.064 41.3467L15.1177 41.3604C15.0342 41.7112 14.9153 42.2962 14.7837 43.0605C15.328 42.8704 15.9948 42.7183 16.7359 42.5947C17.9718 42.3887 19.4979 42.2469 21.1919 42.1562C24.5825 41.9749 28.6961 41.9956 32.6294 42.1211C36.5638 42.2467 40.3313 42.4777 43.0328 42.7217C44.3804 42.8434 45.4753 42.9692 46.1939 43.0879C46.3948 43.1211 46.5785 43.1563 46.7339 43.1924C45.2127 34.291 44.6032 29.3087 44.4322 26.2734C44.2803 23.5764 44.4752 22.402 44.6714 21.4053ZM15.9996 30.8447C14.6561 30.459 13.1716 30.7792 11.815 31.5596C10.3348 32.4116 9.07459 33.7747 8.42045 35.1846C7.7649 36.5985 7.75508 37.9561 8.55619 38.9404C9.34511 39.909 11.042 40.6742 14.1734 40.6826C14.4972 38.9921 14.9444 36.6365 15.3218 34.6074C15.5261 33.5091 15.7098 32.5062 15.8423 31.7568C15.9085 31.3824 15.9621 31.0719 15.9986 30.8457L15.9996 30.8447ZM30.3316 16.1846C26.5534 16.2221 22.8242 16.4287 20.0913 16.8281C18.7197 17.0287 17.6292 17.2743 16.9156 17.5566C16.556 17.6991 16.3321 17.8363 16.2144 17.9492C16.1604 18.0012 16.141 18.0369 16.1353 18.0508C16.1324 18.0582 16.1321 18.0617 16.1333 18.0684C16.1997 18.399 16.4397 19.7081 16.5757 20.4443C29.794 18.6177 40.3638 19.6132 44.8785 20.4268C44.9005 20.3344 44.9218 20.2352 44.9458 20.1348C45.0216 19.8192 45.107 19.4585 45.1822 19.0957C45.2576 18.7319 45.3211 18.3724 45.355 18.0586C45.3851 17.7797 45.3863 17.5694 45.3687 17.4326C45.3395 17.4113 45.29 17.379 45.2134 17.3428C45.0132 17.2482 44.7023 17.1481 44.2798 17.0498C43.4387 16.8542 42.241 16.6853 40.7974 16.5498C37.9143 16.2793 34.1076 16.1471 30.3316 16.1846ZM37.6441 3.58984L37.6431 3.59082C37.6424 3.59128 37.6407 3.59271 37.6392 3.59375C37.6356 3.59607 37.6289 3.5998 37.6216 3.60449C37.6066 3.61434 37.5835 3.62999 37.5542 3.64941C37.4949 3.68887 37.4069 3.7479 37.2964 3.82324C37.0746 3.97453 36.759 4.19422 36.3882 4.46387C35.6445 5.00482 34.6818 5.7455 33.7974 6.54883C33.497 6.82174 33.3571 7.00916 33.3003 7.12402C33.2846 7.15601 33.2788 7.17809 33.2759 7.19043C33.2805 7.19611 33.2873 7.20529 33.2984 7.21582C33.3257 7.24166 33.3687 7.27482 33.4312 7.31348C33.563 7.39486 33.7273 7.47042 33.938 7.57031C34.1343 7.66332 34.3681 7.77635 34.5767 7.91699C34.7858 8.05805 35.0072 8.25186 35.148 8.52441C35.4589 9.12751 35.2495 9.81884 34.6744 10.5811C34.4148 10.9249 34.2214 11.1883 34.0806 11.4131C33.941 11.636 33.8709 11.7962 33.8404 11.9297C33.787 12.1643 33.8277 12.4349 34.1597 13.0508L33.2789 13.5254C32.9235 12.8662 32.7262 12.3152 32.8648 11.707C32.9305 11.4195 33.0645 11.1508 33.233 10.8818C33.4005 10.6143 33.6207 10.3174 33.8765 9.97852C34.3838 9.30609 34.2967 9.05502 34.2593 8.98242C34.2257 8.91781 34.1551 8.83856 34.0181 8.74609C33.8799 8.6529 33.7095 8.56853 33.5093 8.47363C33.3238 8.38572 33.0967 8.28194 32.9058 8.16406C32.7193 8.04877 32.4886 7.87466 32.3628 7.60645C32.2214 7.30405 32.2555 6.98247 32.4029 6.68262C32.5411 6.40207 32.7886 6.11463 33.1255 5.80859C34.0466 4.972 35.0399 4.20769 35.7994 3.65527C36.1796 3.37868 36.5041 3.15314 36.733 2.99707C36.8469 2.91934 36.9381 2.85791 37.0005 2.81641C37.0314 2.79586 37.0564 2.77935 37.0728 2.76855C37.0807 2.76334 37.0881 2.75863 37.0923 2.75586C37.0941 2.75478 37.0962 2.75356 37.0972 2.75293L37.0982 2.75195L37.6441 3.58984ZM33.6929 0.412109C33.952 0.78815 33.9742 0.821374 33.9761 0.824219L33.9751 0.825195C33.9742 0.825841 33.9721 0.826908 33.9703 0.828125C33.9659 0.83117 33.9586 0.836581 33.9497 0.842773C33.9316 0.855452 33.9033 0.874369 33.8677 0.899414C33.7961 0.949907 33.6904 1.02572 33.5572 1.12207C33.2902 1.31522 32.9104 1.59538 32.4644 1.93945C31.5703 2.6292 30.4125 3.57427 29.3472 4.60059C28.983 4.95154 28.8012 5.20296 28.7222 5.37305C28.6528 5.52292 28.6779 5.57329 28.6831 5.58496C28.7004 5.6238 28.7566 5.6989 28.9224 5.80762C29.0861 5.91484 29.289 6.0137 29.5396 6.13965C29.7757 6.25837 30.0508 6.39994 30.2945 6.57422C30.5396 6.74966 30.7865 6.98142 30.941 7.29883C31.2725 7.98103 31.0683 8.78887 30.3843 9.75C29.7452 10.648 29.4481 11.1087 29.3589 11.5225C29.2815 11.8827 29.3543 12.2724 29.7554 13.0615L28.8638 13.5146C28.4397 12.6803 28.2273 12.0251 28.3804 11.3125C28.5222 10.6537 28.9713 10.0109 29.5699 9.16992C30.1858 8.30432 30.1279 7.91416 30.0415 7.73633C29.987 7.62428 29.8834 7.50904 29.7124 7.38672C29.5398 7.26336 29.3299 7.15362 29.0904 7.0332C28.8653 6.92004 28.5983 6.7901 28.3746 6.64355C28.1531 6.49839 27.9021 6.2924 27.7681 5.98926C27.6219 5.65789 27.6527 5.30232 27.815 4.95215C27.9696 4.61891 28.2526 4.26642 28.6538 3.87988C29.7553 2.81883 30.9442 1.84941 31.854 1.14746C32.3096 0.796057 32.6973 0.509701 32.9712 0.311523C33.108 0.212608 33.2168 0.134701 33.2915 0.0820312C33.3286 0.0558996 33.3578 0.0351729 33.3775 0.0214844L33.4068 0.00195312L33.4087 0C33.4106 0.00258494 33.4326 0.0343906 33.6929 0.412109Z" fill="white"></path>
</svg></svg></g></g></svg></g></svg>